<svg preserveAspectRatio="xMidYMid meet" data-bbox="-0.001 0 55.56 138.025" viewBox="-0.001 0 55.56 138.025" xmlns="http://www.w3.org/2000/svg" data-type="shape" role="img" aria-labelledby="svgcid-yjt51tevl5ss"><title id="svgcid-yjt51tevl5ss"></title>
    <g>
        <g>
            <path d="M26.14 137.22a1.8 1.8 0 0 0 3 0l26.18-33.58c.46-.59.15-1.64-.49-1.64H.88c-.79 0-1.18 1.31-.61 2z" opacity=".5"></path>
            <path d="M26.14 86.22a1.8 1.8 0 0 0 3 0l26.2-33.58c.46-.59.15-1.64-.49-1.64H.88C.09 51-.3 52.31.27 53z" opacity=".5"></path>
            <path d="M26.14 35.22a1.8 1.8 0 0 0 3 0l26.2-33.58c.46-.59.15-1.64-.49-1.64H.88C.09 0-.3 1.31.27 2z" opacity=".5"></path>
        </g>
    </g>
</svg>